<?xml version="1.0" standalone="no"?>
<!DOCTYPE svg PUBLIC "-//W3C//DTD SVG 20010904//EN"
 "http://www.w3.org/TR/2001/REC-SVG-20010904/DTD/svg10.dtd">
<svg version="1.0" xmlns="http://www.w3.org/2000/svg"
 width="1920.000000pt" height="1920.000000pt" viewBox="0 0 1920.000000 1920.000000"
 preserveAspectRatio="xMidYMid meet">

<g transform="translate(0.000000,1920.000000) scale(0.100000,-0.100000)"
fill="#000000" stroke="none">
<path d="M7407 17152 l-379 -127 -212 -185 -212 -185 -255 -357 -254 -357
-126 -298 c-78 -187 -182 -408 -277 -593 l-152 -295 -210 -237 c-204 -230
-216 -242 -481 -460 -149 -123 -418 -336 -597 -473 l-326 -251 -218 -321 -217
-320 -152 -379 c-123 -307 -154 -394 -163 -459 l-12 -80 -125 -155 c-99 -123
-144 -190 -219 -325 -51 -93 -149 -258 -216 -365 -97 -155 -132 -222 -172
-325 -27 -71 -93 -218 -145 -325 -71 -145 -97 -209 -102 -250 -3 -30 -8 -66
-11 -81 -6 -34 114 -184 243 -300 78 -71 116 -97 221 -149 175 -87 264 -118
364 -126 l83 -6 125 -124 125 -123 172 -67 173 -67 202 37 c170 31 245 51 463
123 l260 86 162 115 c106 74 165 122 168 136 2 11 6 30 7 41 3 16 12 21 50 23
58 4 373 -86 808 -230 305 -101 305 -101 439 -186 l134 -86 -46 -42 c-26 -23
-109 -76 -184 -117 -127 -68 -155 -79 -348 -132 -188 -52 -218 -63 -281 -106
l-70 -47 -210 -12 c-115 -6 -290 -22 -389 -36 l-180 -25 -85 -54 -85 -53 -33
-147 c-19 -80 -32 -149 -29 -151 3 -3 41 15 84 39 73 42 84 45 171 50 l93 6
27 -46 c50 -83 37 -80 148 -39 54 20 175 53 268 72 93 19 195 41 228 49 53 12
81 11 251 -7 l192 -20 160 62 c88 34 255 102 370 150 l211 88 254 42 255 43
347 -162 346 -161 224 -53 223 -52 367 -5 366 -5 -281 -120 c-253 -108 -321
-144 -391 -205 -9 -8 28 -77 66 -122 l23 -27 75 14 c73 15 232 27 530 40 144
7 148 7 340 -33 107 -23 238 -50 290 -60 93 -20 94 -20 41 -21 -30 -1 -154 13
-275 30 l-221 31 -270 -17 c-148 -8 -319 -22 -378 -30 -59 -8 -112 -15 -116
-15 -16 0 70 -203 125 -297 l55 -93 592 0 c326 0 720 5 877 10 185 6 448 6
750 0 438 -10 491 -13 910 -55 245 -25 470 -48 500 -50 30 -3 209 -21 396 -40
l342 -34 181 -90 181 -91 255 0 255 0 127 51 c123 49 143 54 500 114 l371 63
219 87 c124 50 231 87 247 86 16 -1 169 -65 340 -142 281 -127 315 -145 356
-188 523 -552 648 -694 890 -1007 246 -317 249 -322 323 -480 41 -87 106 -227
145 -310 l71 -151 41 -242 41 -243 -57 -202 c-32 -110 -58 -202 -58 -203 -1 0
-144 -38 -318 -82 l-318 -81 -472 119 c-260 66 -741 184 -1067 261 l-595 142
-260 -21 c-144 -12 -288 -24 -321 -26 -33 -3 -289 -23 -570 -45 l-510 -41
-265 -94 c-146 -51 -497 -175 -780 -275 l-515 -182 -430 -226 c-424 -223 -434
-229 -750 -447 l-320 -222 -295 -79 -295 -79 -282 -189 -283 -189 -19 -66
c-11 -36 -38 -131 -61 -211 -23 -80 -43 -153 -46 -163 -4 -13 70 20 263 116
l268 135 420 137 420 137 460 215 c572 268 608 286 835 413 102 57 268 151
370 207 l185 104 470 154 470 154 325 40 c179 23 382 48 451 56 69 9 332 24
584 35 l459 18 306 -38 c168 -22 429 -55 581 -74 l275 -36 328 -139 327 -139
262 -27 c144 -14 319 -32 388 -40 l126 -14 327 49 c180 26 329 50 331 52 2 1
82 125 179 275 l176 272 0 423 0 423 -34 250 c-19 138 -44 324 -56 415 l-22
165 -312 490 -311 490 -179 195 c-99 107 -227 245 -284 307 l-105 112 -104
233 -105 233 15 300 14 300 183 370 c100 204 232 470 292 593 106 214 116 242
283 743 l174 520 -54 302 c-30 166 -63 356 -75 422 -11 66 -23 129 -27 140 -3
11 -115 291 -249 622 l-244 602 -242 468 -242 468 -220 296 c-200 269 -247
324 -494 587 l-274 291 -431 269 c-238 148 -470 289 -517 314 -47 25 -141 74
-210 110 -69 36 -251 132 -404 213 -231 121 -365 182 -766 349 l-486 203 -264
27 c-513 51 -708 67 -1109 91 -726 43 -604 47 -1176 -34 -386 -55 -557 -84
-745 -126 -135 -31 -328 -74 -430 -96 -183 -41 -422 -121 -869 -293 -80 -31
-146 -54 -148 -52 -2 2 1 66 6 142 11 139 11 139 86 334 71 187 76 205 111
415 l37 220 -54 170 -55 170 -164 47 c-91 25 -172 47 -180 46 -8 0 -185 -57
-393 -126z m-536 -3372 c-17 -149 -31 -287 -31 -306 0 -58 -15 -38 -32 44
l-16 77 51 232 c29 127 53 230 55 228 2 -1 -11 -125 -27 -275z"/>
</g>
</svg>
